<mxfile host="Electron" agent="Mozilla/5.0 (X11; Linux x86_64) AppleWebKit/537.36 (KHTML, like Gecko) draw.io/24.7.17 Chrome/128.0.6613.186 Electron/32.2.5 Safari/537.36" version="24.7.17">
  <diagram name="Page-1" id="5URcg_Ow-Bu96PzFJ58j">
    <mxGraphModel dx="754" dy="811" grid="1" gridSize="10" guides="1" tooltips="1" connect="1" arrows="1" fold="1" page="1" pageScale="1" pageWidth="850" pageHeight="1100" math="0" shadow="0">
      <root>
        <mxCell id="0" />
        <mxCell id="1" parent="0" />
        <mxCell id="KF2YzgkPiIL-BKxh27TP-4" value="" style="edgeStyle=orthogonalEdgeStyle;rounded=0;orthogonalLoop=1;jettySize=auto;html=1;" edge="1" parent="1" source="KF2YzgkPiIL-BKxh27TP-1" target="KF2YzgkPiIL-BKxh27TP-2">
          <mxGeometry relative="1" as="geometry" />
        </mxCell>
        <mxCell id="KF2YzgkPiIL-BKxh27TP-1" value="start" style="ellipse;whiteSpace=wrap;html=1;" vertex="1" parent="1">
          <mxGeometry x="440" y="40" width="120" height="80" as="geometry" />
        </mxCell>
        <mxCell id="KF2YzgkPiIL-BKxh27TP-6" value="" style="edgeStyle=orthogonalEdgeStyle;rounded=0;orthogonalLoop=1;jettySize=auto;html=1;" edge="1" parent="1" source="KF2YzgkPiIL-BKxh27TP-2" target="KF2YzgkPiIL-BKxh27TP-5">
          <mxGeometry relative="1" as="geometry" />
        </mxCell>
        <mxCell id="KF2YzgkPiIL-BKxh27TP-2" value="int n, k" style="rounded=1;whiteSpace=wrap;html=1;" vertex="1" parent="1">
          <mxGeometry x="440" y="170" width="120" height="60" as="geometry" />
        </mxCell>
        <mxCell id="KF2YzgkPiIL-BKxh27TP-8" value="" style="edgeStyle=orthogonalEdgeStyle;rounded=0;orthogonalLoop=1;jettySize=auto;html=1;" edge="1" parent="1" source="KF2YzgkPiIL-BKxh27TP-5" target="KF2YzgkPiIL-BKxh27TP-7">
          <mxGeometry relative="1" as="geometry" />
        </mxCell>
        <mxCell id="KF2YzgkPiIL-BKxh27TP-5" value="enter n and k" style="shape=parallelogram;perimeter=parallelogramPerimeter;whiteSpace=wrap;html=1;fixedSize=1;" vertex="1" parent="1">
          <mxGeometry x="440" y="280" width="120" height="60" as="geometry" />
        </mxCell>
        <mxCell id="KF2YzgkPiIL-BKxh27TP-10" value="" style="edgeStyle=orthogonalEdgeStyle;rounded=0;orthogonalLoop=1;jettySize=auto;html=1;" edge="1" parent="1" source="KF2YzgkPiIL-BKxh27TP-7" target="KF2YzgkPiIL-BKxh27TP-9">
          <mxGeometry relative="1" as="geometry" />
        </mxCell>
        <mxCell id="KF2YzgkPiIL-BKxh27TP-7" value="int count = 0" style="rounded=1;whiteSpace=wrap;html=1;" vertex="1" parent="1">
          <mxGeometry x="440" y="390" width="120" height="60" as="geometry" />
        </mxCell>
        <mxCell id="KF2YzgkPiIL-BKxh27TP-13" value="" style="edgeStyle=orthogonalEdgeStyle;rounded=0;orthogonalLoop=1;jettySize=auto;html=1;" edge="1" parent="1" source="KF2YzgkPiIL-BKxh27TP-9" target="KF2YzgkPiIL-BKxh27TP-11">
          <mxGeometry relative="1" as="geometry" />
        </mxCell>
        <mxCell id="KF2YzgkPiIL-BKxh27TP-9" value="int temp" style="rounded=1;whiteSpace=wrap;html=1;" vertex="1" parent="1">
          <mxGeometry x="440" y="500" width="120" height="60" as="geometry" />
        </mxCell>
        <mxCell id="KF2YzgkPiIL-BKxh27TP-15" value="" style="edgeStyle=orthogonalEdgeStyle;rounded=0;orthogonalLoop=1;jettySize=auto;html=1;" edge="1" parent="1" source="KF2YzgkPiIL-BKxh27TP-11" target="KF2YzgkPiIL-BKxh27TP-14">
          <mxGeometry relative="1" as="geometry" />
        </mxCell>
        <mxCell id="KF2YzgkPiIL-BKxh27TP-28" value="" style="edgeStyle=orthogonalEdgeStyle;rounded=0;orthogonalLoop=1;jettySize=auto;html=1;" edge="1" parent="1" source="KF2YzgkPiIL-BKxh27TP-11" target="KF2YzgkPiIL-BKxh27TP-27">
          <mxGeometry relative="1" as="geometry" />
        </mxCell>
        <mxCell id="KF2YzgkPiIL-BKxh27TP-11" value="i = 0; i &amp;lt; n; i++" style="shape=hexagon;perimeter=hexagonPerimeter2;whiteSpace=wrap;html=1;fixedSize=1;" vertex="1" parent="1">
          <mxGeometry x="440" y="610" width="120" height="80" as="geometry" />
        </mxCell>
        <mxCell id="KF2YzgkPiIL-BKxh27TP-17" value="" style="edgeStyle=orthogonalEdgeStyle;rounded=0;orthogonalLoop=1;jettySize=auto;html=1;" edge="1" parent="1" source="KF2YzgkPiIL-BKxh27TP-14" target="KF2YzgkPiIL-BKxh27TP-16">
          <mxGeometry relative="1" as="geometry" />
        </mxCell>
        <mxCell id="KF2YzgkPiIL-BKxh27TP-14" value="enter temp" style="shape=parallelogram;perimeter=parallelogramPerimeter;whiteSpace=wrap;html=1;fixedSize=1;" vertex="1" parent="1">
          <mxGeometry x="440" y="740" width="120" height="60" as="geometry" />
        </mxCell>
        <mxCell id="KF2YzgkPiIL-BKxh27TP-19" value="" style="edgeStyle=orthogonalEdgeStyle;rounded=0;orthogonalLoop=1;jettySize=auto;html=1;" edge="1" parent="1" source="KF2YzgkPiIL-BKxh27TP-16" target="KF2YzgkPiIL-BKxh27TP-18">
          <mxGeometry relative="1" as="geometry" />
        </mxCell>
        <mxCell id="KF2YzgkPiIL-BKxh27TP-23" value="true" style="edgeLabel;html=1;align=center;verticalAlign=middle;resizable=0;points=[];" vertex="1" connectable="0" parent="KF2YzgkPiIL-BKxh27TP-19">
          <mxGeometry x="-0.44" y="2" relative="1" as="geometry">
            <mxPoint as="offset" />
          </mxGeometry>
        </mxCell>
        <mxCell id="KF2YzgkPiIL-BKxh27TP-21" style="edgeStyle=orthogonalEdgeStyle;rounded=0;orthogonalLoop=1;jettySize=auto;html=1;entryX=1;entryY=0.5;entryDx=0;entryDy=0;" edge="1" parent="1" source="KF2YzgkPiIL-BKxh27TP-16" target="KF2YzgkPiIL-BKxh27TP-11">
          <mxGeometry relative="1" as="geometry">
            <Array as="points">
              <mxPoint x="670" y="890" />
              <mxPoint x="670" y="650" />
            </Array>
          </mxGeometry>
        </mxCell>
        <mxCell id="KF2YzgkPiIL-BKxh27TP-22" value="false" style="edgeLabel;html=1;align=center;verticalAlign=middle;resizable=0;points=[];" vertex="1" connectable="0" parent="KF2YzgkPiIL-BKxh27TP-21">
          <mxGeometry x="-0.9152" relative="1" as="geometry">
            <mxPoint as="offset" />
          </mxGeometry>
        </mxCell>
        <mxCell id="KF2YzgkPiIL-BKxh27TP-16" value="temp &amp;gt; k" style="rhombus;whiteSpace=wrap;html=1;" vertex="1" parent="1">
          <mxGeometry x="420" y="850" width="160" height="80" as="geometry" />
        </mxCell>
        <mxCell id="KF2YzgkPiIL-BKxh27TP-24" style="edgeStyle=orthogonalEdgeStyle;rounded=0;orthogonalLoop=1;jettySize=auto;html=1;entryX=1;entryY=0.5;entryDx=0;entryDy=0;" edge="1" parent="1" source="KF2YzgkPiIL-BKxh27TP-18" target="KF2YzgkPiIL-BKxh27TP-11">
          <mxGeometry relative="1" as="geometry">
            <Array as="points">
              <mxPoint x="670" y="1010" />
              <mxPoint x="670" y="650" />
            </Array>
          </mxGeometry>
        </mxCell>
        <mxCell id="KF2YzgkPiIL-BKxh27TP-18" value="count++" style="rounded=0;whiteSpace=wrap;html=1;" vertex="1" parent="1">
          <mxGeometry x="440" y="980" width="120" height="60" as="geometry" />
        </mxCell>
        <mxCell id="KF2YzgkPiIL-BKxh27TP-30" value="" style="edgeStyle=orthogonalEdgeStyle;rounded=0;orthogonalLoop=1;jettySize=auto;html=1;" edge="1" parent="1" source="KF2YzgkPiIL-BKxh27TP-27" target="KF2YzgkPiIL-BKxh27TP-29">
          <mxGeometry relative="1" as="geometry" />
        </mxCell>
        <mxCell id="KF2YzgkPiIL-BKxh27TP-27" value="print count" style="shape=parallelogram;perimeter=parallelogramPerimeter;whiteSpace=wrap;html=1;fixedSize=1;" vertex="1" parent="1">
          <mxGeometry x="270" y="620" width="120" height="60" as="geometry" />
        </mxCell>
        <mxCell id="KF2YzgkPiIL-BKxh27TP-29" value="end" style="ellipse;whiteSpace=wrap;html=1;" vertex="1" parent="1">
          <mxGeometry x="270" y="730" width="120" height="80" as="geometry" />
        </mxCell>
      </root>
    </mxGraphModel>
  </diagram>
</mxfile>
